<svg xmlns="http://www.w3.org/2000/svg" viewBox="0 0 434.1 90.9"><defs><style>.cls-1,.cls-5{fill:#dacdc2;}.cls-12,.cls-2,.cls-6,.cls-9{fill:#81552f;}.cls-3,.cls-4,.cls-8{fill:none;}.cls-3,.cls-4,.cls-5,.cls-8{stroke:#81552f;stroke-linecap:round;stroke-linejoin:round;}.cls-3,.cls-5{stroke-width:1.72px;}.cls-4{stroke-width:2.59px;}.cls-6{font-size:23.14px;letter-spacing:-0.03em;}.cls-12,.cls-6,.cls-9{font-family:GenJyuuGothicX-Bold, Gen Jyuu GothicX;font-weight:700;}.cls-7{letter-spacing:-0.05em;}.cls-8{stroke-width:2.33px;}.cls-12,.cls-9{font-size:15.86px;}.cls-9{letter-spacing:-0.05em;}.cls-10{letter-spacing:-0.04em;}.cls-11,.cls-12{letter-spacing:-0.02em;}.cls-13{letter-spacing:-0.03em;}.cls-14{letter-spacing:-0.04em;}</style></defs><title>pento</title><g id="物件"><path class="cls-1" d="M80.6,24.6s4.4,11.7,16.1,9.3c-1.8-5.2-3.6-10.6-5.7-10.9s-4.5,2.5-4.5,2.5S82.8,23.9,80.6,24.6Z"/><path class="cls-1" d="M72.2,24.6s-4.4,11.7-16.1,9.3c1.8-5.2,3.6-10.6,5.7-10.9s4.5,2.5,4.5,2.5S70,23.9,72.2,24.6Z"/><path class="cls-1" d="M13.9,47.2C5.4,44.8.9,44.9.9,35.9,1,34.4,6.6,29,9.8,29.5S17,37.8,13.9,47.2Z"/><path class="cls-2" d="M383.2,5.5V22.9s0,6.8,8.4,6.8C401.6,29.7,395.1,7.3,383.2,5.5Z"/><path class="cls-1" d="M363,31.4c-8.3-2.3-12.7-2.2-12.7-11,.1-1.5,5.6-6.7,8.7-6.2S366,22.3,363,31.4Z"/><path class="cls-1" d="M412.9,3s4.3,11.4,15.7,9C426.8,7,425,1.7,423,1.4s-4.4,2.5-4.4,2.5S415.1,2.4,412.9,3Z"/><path class="cls-1" d="M406.6,3s-4.3,11.4-15.7,9c1.7-5,3.5-10.3,5.6-10.7s4.4,2.5,4.4,2.5S404.4,2.4,406.6,3Z"/><ellipse class="cls-2" cx="367.3" cy="13.1" rx="1.5" ry="1.6"/><path class="cls-2" d="M359.2,14.4l-6.7,1.1a16.6,16.6,0,0,0-1.7,2.9C352.4,19.9,360.7,20.7,359.2,14.4Z"/><line class="cls-3" x1="424" y1="15.7" x2="433.2" y2="13.8"/><line class="cls-3" x1="433.2" y1="22.2" x2="424" y2="20.4"/><circle class="cls-2" cx="402.8" cy="13.1" r="1.5"/><circle class="cls-2" cx="415" cy="13.1" r="1.5"/><path class="cls-2" d="M409.6,18.1l1.4-1.4a1.1,1.1,0,0,0-.8-1.9h-2.8a1.1,1.1,0,0,0-.8,1.9l1.4,1.4A1.1,1.1,0,0,0,409.6,18.1Z"/><path class="cls-4" d="M408.8,16.6s1.1,3.6-3.3,3.6"/><path class="cls-4" d="M409,16.6s-1.1,3.6,3.3,3.6"/><path class="cls-3" d="M414.5,43.7c10.2-8.7,14.8-16.9,14.8-24.2S425.9,5.7,424,2.1a2.3,2.3,0,0,0-3.3-.9l-4.4,2.8c-9.5-2.4-14.5-.1-14.5-.1l-3.3-2.3A2.3,2.3,0,0,0,395,2.8c-1,2.7-2,7.1-3.8,9.3h0c6.1,7.2,6.8,16.1,0,16.1s-6.8-7.8,0-16.1c-2-2.3-7.5-9.2-18.4-9.2s-14.5,8.6-14.5,11.6c-2.7,0-8,.6-8,5.9,0,8.4,4.8,8.1,10.9,9.4a1.6,1.6,0,0,1,1.2,1c1.2,3.6.2,7,3,10.2l2.5,2.7"/><path class="cls-3" d="M404.3,40.1h-.9a5.3,5.3,0,0,0-6.9-1.7,6.4,6.4,0,0,0-10,0,5.3,5.3,0,0,0-6.9,1.7h-.9a3.7,3.7,0,1,0,1.8,7,5.2,5.2,0,0,0,6.7.2,6.4,6.4,0,0,0,8.7,0,5.2,5.2,0,0,0,6.7-.2,3.7,3.7,0,1,0,1.8-7Z"/><path class="cls-5" d="M410.6,45.4c0,5.1-11.8,13.8-19.2,13.8s-19.2-8.7-19.2-13.8Z"/><text class="cls-6" transform="translate(353.9 84.5) scale(1 0.85)">PEN<tspan class="cls-7" x="45.2" y="0">T</tspan><tspan x="58.5" y="0">O</tspan></text><path class="cls-3" d="M199.1,33.2a3.9,3.9,0,0,0-3.9-3.9h-.9a5.5,5.5,0,0,0-7.2-1.8,6.8,6.8,0,0,0-10.5,0,5.5,5.5,0,0,0-7.2,1.8h-.9a3.9,3.9,0,0,0-3.5,5.5h33.9A3.9,3.9,0,0,0,199.1,33.2Z"/><path class="cls-5" d="M164.8,34.8h-3.4c0,5.3,12.2,14.4,20.2,14.4s20.2-9.1,20.2-14.4h-37Z"/><line class="cls-3" x1="93.5" y1="37.8" x2="103.2" y2="35.8"/><line class="cls-3" x1="103.2" y1="44.6" x2="93.5" y2="42.7"/><line class="cls-3" x1="59.2" y1="37.8" x2="51.8" y2="36.3"/><line class="cls-3" x1="51" y1="44.3" x2="59.2" y2="42.7"/><circle class="cls-2" cx="69.5" cy="35" r="1.6"/><circle class="cls-2" cx="82.2" cy="35" r="1.6"/><path class="cls-2" d="M76.6,40.3l1.5-1.5a1.2,1.2,0,0,0-.8-2H74.3a1.2,1.2,0,0,0-.8,2L75,40.3A1.2,1.2,0,0,0,76.6,40.3Z"/><path class="cls-8" d="M75.7,38.8s1.2,3.8-3.5,3.8"/><path class="cls-8" d="M76,38.8s-1.2,3.8,3.5,3.8"/><path class="cls-3" d="M55.8,49.1a21,21,0,0,1-1.4-7.4c0-6.8,3.6-14.5,5.5-18.2a2.4,2.4,0,0,1,3.4-.9l4.6,3a34.2,34.2,0,0,1,8.4-1.2h0a34.2,34.2,0,0,1,8.4,1.2l4.6-3a2.4,2.4,0,0,1,3.4.9c2,3.8,5.5,11.4,5.5,18.2a21,21,0,0,1-1.4,7.4"/><path class="cls-2" d="M35.3,20.4V38.6s0,7.2,8.8,7.2C54.7,45.8,47.8,22.3,35.3,20.4Z"/><ellipse class="cls-2" cx="18.7" cy="28.3" rx="1.5" ry="1.7"/><path class="cls-2" d="M10.2,29.8,3.1,30.9a17.4,17.4,0,0,0-1.8,3C3.1,35.5,11.7,36.4,10.2,29.8Z"/><path class="cls-3" d="M43.4,27.5c-2.1-2.4-7.5-9.8-18.9-9.8S9.3,26.6,9.3,29.8C6.4,29.8.9,30.4.9,36c0,8.8,5,8.5,11.4,9.8a1.6,1.6,0,0,1,1.2,1.1v2.9"/><line class="cls-3" x1="43.3" y1="42.4" x2="43.3" y2="49.8"/><line class="cls-8" x1="126.3" y1="46.5" x2="138.4" y2="46.5"/><line class="cls-8" x1="132.3" y1="40.4" x2="132.3" y2="52.5"/><line class="cls-8" x1="225.8" y1="46.5" x2="237.9" y2="46.5"/><line class="cls-8" x1="231.9" y1="40.4" x2="231.9" y2="52.5"/><line class="cls-8" x1="313.2" y1="49.5" x2="325.3" y2="49.5"/><line class="cls-8" x1="313.2" y1="43.5" x2="325.3" y2="43.5"/><text class="cls-9" transform="translate(37.1 69.2) scale(1 0.95)">P<tspan class="cls-10" x="9.8" y="0">e</tspan><tspan class="cls-11" x="18.4" y="0">t</tspan></text><text class="cls-12" transform="translate(159.3 69.2) scale(1 0.95)">Ben<tspan class="cls-13" x="29" y="0">t</tspan><tspan x="35.1" y="0">o</tspan></text><text class="cls-12" transform="translate(252 69.2) scale(1 0.95)">H<tspan class="cls-14" x="11.6" y="0">e</tspan><tspan x="20.2" y="0">art</tspan></text><path class="cls-5" d="M273.5,28.9c2.3-3.1,5.5-5.2,9.5-4.6,5.6.9,8.3,5.1,6.7,10a18.7,18.7,0,0,1-4.6,7c-3.2,3.4-7.2,5.9-11.1,8.5a.7.7,0,0,1-.9,0c-4.7-3.2-9.5-6.3-13-10.7-1.8-2.2-3.1-4.5-3.1-7.4s2.6-6.6,6.6-7.4S271.1,25.7,273.5,28.9Z"/></g></svg>