<?xml version="1.0" encoding="utf-8"?>
<!-- Generator: Adobe Illustrator 21.1.0, SVG Export Plug-In . SVG Version: 6.00 Build 0)  -->
<svg version="1.1" id="圖層_1" xmlns="http://www.w3.org/2000/svg" xmlns:xlink="http://www.w3.org/1999/xlink" x="0px" y="0px"
	 viewBox="0 0 163.5 163.1" style="enable-background:new 0 0 163.5 163.1;" xml:space="preserve">
<style type="text/css">
	.st0{fill:#707070;}
	.st1{fill:#979797;}
	.st2{fill:#323232;}
</style>
<path class="st0" d="M47.2,90.2c3.4,8.3,21.6,21.3,33.8,21.3c6,0,14.6-3.4,22.3-9c5.8-4.2,10-8.8,11.5-12.3H47.2z"/>
<title>LOGO-for-index</title>
<path class="st1" d="M26.7,60.9c-15.8-4.4-24.2-4.2-24.2-21C2.7,37,13.2,27.1,19.1,28.1S32.4,43.5,26.7,60.9z"/>
<path class="st1" d="M122.3,6.6c0,0,8.3,21.8,30,17.3c-3.3-9.7-6.8-19.7-10.7-20.4s-8.4,4.7-8.4,4.7S126.4,5.3,122.3,6.6z"/>
<path class="st1" d="M110.2,6.6c0,0-8.3,21.8-30,17.3C83.6,14.2,87,4.1,90.9,3.5s8.4,4.7,8.4,4.7S106,5.3,110.2,6.6z"/>
<ellipse class="st2" cx="35" cy="25.8" rx="2.8" ry="3.1"/>
<circle class="st2" cx="102.9" cy="25.8" r="2.9"/>
<circle class="st2" cx="126.2" cy="25.8" r="2.9"/>
<path class="st2" d="M121.2,37.1c-1.8,0-3.2-0.4-3.7-1.1c-0.3-0.5-0.5-1-0.4-1.6l1.6-1.6c0.9-0.7,1-2.1,0.3-3
	c-0.4-0.5-1.1-0.8-1.8-0.7h-5.3c-1.2-0.1-2.2,0.8-2.2,1.9c0,0.7,0.2,1.3,0.7,1.8l1.8,1.8c0,0.5-0.1,0.9-0.4,1.3
	c-0.5,0.7-1.9,1.1-3.7,1.1c-1.4,0-2.5,1.1-2.5,2.5s1.1,2.5,2.5,2.5c2.4,0.1,4.7-0.6,6.6-2c1.9,1.4,4.2,2.1,6.6,2
	c1.4,0,2.5-1.1,2.5-2.5S122.7,37,121.2,37.1L121.2,37.1z"/>
<path class="st2" d="M161.5,40.9l-5.5-1.1v-1.7c0-2.4-0.2-4.8-0.6-7.1l6.1-1.2c1.4-0.3,2.2-1.6,1.9-2.9c-0.3-1.4-1.6-2.2-2.9-2
	l-6.1,1.2c-2-7.8-5-15.3-8.8-22.4c-1.8-3.4-5.9-4.7-9.3-2.9l-0.5,0.3L128.2,6c-14.4-3.5-23.6-1.4-26.9-0.3L96.2,2
	c-3.1-2.2-7.4-1.5-9.6,1.6c-0.4,0.5-0.7,1.1-0.9,1.7c-0.5,1.4-1,2.9-1.5,4.5c-1,3.5-2.3,6.8-3.8,10.1c-5.2-5.9-16.1-16-34.9-16
	S17.4,18.3,15.6,26.2C5.7,26.8,0,31.8,0,40c0,16.2,9.1,17.8,18.8,19.6l4,0.8c0.2,0,0.3,0.1,0.4,0.3c0.7,2.2,1.1,4.6,1.3,6.9
	c0.5,4.4,1,9,4.9,13.5c1.5,1.7,3.2,3.5,5,5.2c1,1,2.6,0.9,3.5,0c1-1,0.9-2.6,0-3.6l0,0l0,0c-1.7-1.6-3.2-3.3-4.7-4.9
	c-2.9-3.4-3.3-6.8-3.7-10.8c-0.2-2.7-0.8-5.4-1.6-8c-0.7-1.8-2.2-3.1-4.1-3.5l-4.1-0.8C10.2,53,5,52.1,5,40c0-1.1,0.1-2.2,0.5-3.2
	c4.6,2.3,17.8,2.8,15.1-8.3h-0.3c0.2-4.8,8.1-19.6,25.2-19.6c7-0.1,13.8,1.7,19.9,5.1v30.6c0,0,0,13.3,16,13.1
	c4.2,0,8.1-2.5,9.8-6.4c3.1-6.7,0.1-17.8-7.4-27.4c2.3-3.5,3.8-8.3,5.2-12.6L90.4,7c0.3-1,1.4-1.6,2.4-1.2c0,0,0.1,0,0.1,0L93.3,6
	l6.3,4.4c0.7,0.5,1.7,0.6,2.5,0.2c0.1,0,9.2-4,26.1,0.3c0.7,0.2,1.4,0.1,2-0.3l8.4-5.4c0.9-0.6,2-0.4,2.6,0.5c0,0,0,0.1,0.1,0.1h0.1
	c3.5,6.7,6.3,13.8,8.2,21.2l-6.7,1.4c-1.4,0.3-2.2,1.6-1.9,2.9c0.3,1.4,1.6,2.2,2.9,2l6.7-1.4c0.3,2.1,0.5,4.1,0.5,6.2v0.7l-7.1-1.5
	c-1.4-0.3-2.7,0.6-2.9,2c-0.3,1.4,0.6,2.7,1.9,3l7.6,1.6c-2.1,12.3-11.1,25.3-26.9,38.8c-0.9,1-0.9,2.6,0.1,3.5
	c0.8,0.8,2.1,0.9,3.1,0.3l0,0c16.5-14.2,26-28.2,28.5-41.6l5.1,1c1.4,0.3,2.7-0.6,2.9-2C163.7,42.5,162.9,41.2,161.5,40.9z"/>
<path class="st2" d="M117.9,85.2h-2.5v-0.4c0-5.3-4.3-9.6-9.6-9.6h-0.7c-3.4-3.8-8.8-5.2-13.6-3.5c-5.7-5.5-14.8-5.5-20.5,0
	c-4.8-1.7-10.2-0.3-13.6,3.5c-5.3-0.3-9.9,3.7-10.2,9c0,0,0,0,0,0c0,0.2,0,0.4,0,0.6v0.4h-3c-1.4,0-2.5,1.1-2.5,2.5l0,0
	c0,11.3,23.9,28.8,39.3,28.8s39.3-17.5,39.3-28.8C120.3,86.3,119.2,85.2,117.9,85.2L117.9,85.2z M114.8,90.2
	c-1.5,3.5-5.7,8.1-11.5,12.3c-7.7,5.6-16.3,9-22.3,9c-12.2,0-30.4-13-33.8-21.3H114.8z M52.2,84.7c0-2.5,2.1-4.6,4.6-4.6H58
	c1,0.3,2.1-0.1,2.7-1c1.4-2.1,3.8-3.4,6.3-3.4c1.3,0,2.5,0.3,3.6,0.9c1,0.6,2.3,0.3,3.1-0.6c3.3-4.3,9.5-5,13.8-1.6
	c0.6,0.5,1.2,1,1.6,1.6c0.8,0.9,2.1,1.2,3.1,0.6c1.1-0.6,2.3-0.9,3.6-0.9c2.5,0,4.8,1.3,6.2,3.3c0.6,0.9,1.7,1.3,2.7,1
	c2.5-0.6,5,0.9,5.6,3.4c0.1,0.4,0.1,0.8,0.1,1.1c0,0.1,0,0.3,0,0.4H52.2V84.7z"/>
<path class="st2" d="M17.6,161.7c-1.3,1.1-3.3,1.1-4.6,0c-0.6-0.5-1-1.2-1-2v-21.8c0-0.9,0.4-1.7,1.1-2.3c0.8-0.6,1.7-0.9,2.7-0.9h7
	c8.5,0,12.8,2.9,12.8,8.8c0.1,1.9-0.5,3.7-1.7,5.2c-1.2,1.4-2.7,2.5-4.5,3.1c-2.1,0.7-4.2,1-6.4,1h-4c-0.3,0-0.4,0.1-0.4,0.4v6.7
	C18.5,160.6,18.2,161.3,17.6,161.7z M18.6,147.8c0,0.3,0.1,0.4,0.4,0.4h3.5c4.5,0,6.7-1.6,6.7-4.8c0.1-1.3-0.6-2.6-1.7-3.3
	c-1.6-0.8-3.4-1.1-5.2-1H19c-0.3,0-0.4,0.1-0.4,0.4V147.8z"/>
<path class="st2" d="M44.2,162.6c-1,0-1.9-0.3-2.7-0.9c-0.7-0.6-1.1-1.4-1.1-2.3v-21.5c0-0.9,0.4-1.7,1.1-2.3
	c0.8-0.6,1.7-0.9,2.7-0.9h13.6c0.7,0,1.4,0.2,1.9,0.7c0.9,0.7,1.1,2,0.4,2.9l-0.4,0.4c-0.5,0.5-1.2,0.7-1.9,0.7H47.4
	c-0.3,0-0.4,0.1-0.4,0.4v5.7c0,0.3,0.1,0.4,0.4,0.4h8.3c0.7,0,1.4,0.2,2,0.7c0.9,0.7,1.1,2,0.3,3c0,0,0,0,0,0l-0.3,0.3
	c-0.6,0.5-1.3,0.7-2,0.7h-8.3c-0.3,0-0.4,0.1-0.4,0.4v6.7c0,0.3,0.1,0.4,0.4,0.4h10.9c0.7,0,1.4,0.2,1.9,0.7c0.9,0.7,1.1,2,0.3,3
	c0,0,0,0,0,0l-0.3,0.3c-0.5,0.5-1.2,0.7-1.9,0.7L44.2,162.6z"/>
<path class="st2" d="M71.8,161.8c-1.3,1-3.1,1-4.4,0c-0.6-0.5-0.9-1.2-0.9-1.9v-22.3c0-0.8,0.4-1.5,1-2c0.7-0.6,1.5-0.8,2.4-0.8
	c1,0,2,0.2,2.9,0.7c0.8,0.4,1.6,1,2.1,1.8l7.9,12.4l3.2,5.9h0.3l0,0c-0.5-3.2-0.8-6.5-0.9-9.7v-8.4c0-0.7,0.3-1.4,0.9-1.9
	c1.3-1,3.1-1,4.4,0c0.6,0.5,0.9,1.2,0.9,1.9v22.4c0,0.8-0.4,1.5-1,2c-0.7,0.6-1.5,0.8-2.4,0.8c-1,0-1.9-0.3-2.8-0.7
	c-0.8-0.4-1.5-1-2-1.8l-7.9-12.4l-3.3-5.9H72c0.1,0.4,0.2,1.1,0.3,2.2l0.3,2.6l0.2,2.3c0.1,0.9,0.1,1.8,0.1,2.5v8.5
	C72.8,160.7,72.4,161.4,71.8,161.8z"/>
<path class="st2" d="M110.7,161.7c-1.3,1.1-3.3,1.1-4.6,0c-0.6-0.5-1-1.2-1-2v-20c0-0.3-0.1-0.4-0.4-0.4h-6c-0.7,0-1.4-0.2-1.9-0.7
	c-0.9-0.7-1.1-2-0.4-2.9l0.4-0.4c0.5-0.5,1.2-0.7,1.9-0.7h19.6c0.7,0,1.4,0.2,1.9,0.7c0.9,0.7,1.1,2,0.4,2.9l-0.4,0.4
	c-0.5,0.5-1.2,0.7-1.9,0.7H112c-0.3,0-0.4,0.1-0.4,0.4v20.1C111.6,160.5,111.3,161.2,110.7,161.7z"/>
<path class="st2" d="M147.5,159.1c-6.1,5.2-15.1,5.2-21.2,0c-2.7-2.6-4-6.1-4-10.6c0-4.5,1.3-8,4-10.5c2.7-2.5,6.2-3.8,10.6-3.8
	c4.4,0,7.9,1.3,10.6,3.8c2.7,2.5,4,6,4,10.5S150.2,156.5,147.5,159.1z M131.1,155.6c2.8,3.2,7.6,3.6,10.9,0.8c0,0,0,0,0,0l0.8-0.8
	c1.5-2,2.3-4.5,2.2-7.1c0.1-2.5-0.6-5-2.2-7c-2.9-3.2-7.9-3.5-11.2-0.5c0,0,0,0,0,0l-0.5,0.5c-1.5,2-2.3,4.5-2.1,7
	C128.9,151,129.6,153.6,131.1,155.6z"/>
</svg>
