<svg id="圖層_1" data-name="圖層 1" xmlns="http://www.w3.org/2000/svg" viewBox="0 0 163.53 163.06"><defs><style>.cls-1{fill:#fedc5e;}.cls-2{fill:#323232;}.cls-3{fill:#64be3b;}</style></defs><title>工作區域 1</title><path class="cls-1" d="M26.73,60.92c-15.82-4.38-24.24-4.25-24.24-21C2.74,37,13.19,27.09,19.12,28.07,25,28.84,32.44,43.48,26.73,60.92Z"/><path class="cls-1" d="M122.27,6.56s8.28,21.76,30,17.28c-3.34-9.66-6.76-19.74-10.66-20.38s-8.43,4.7-8.43,4.7S126.41,5.35,122.27,6.56Z"/><path class="cls-1" d="M110.18,6.56s-8.28,21.76-30,17.28C83.56,14.19,87,4.11,90.89,3.46s8.43,4.7,8.43,4.7S106,5.35,110.18,6.56Z"/><ellipse class="cls-2" cx="35.02" cy="25.84" rx="2.79" ry="3.07"/><circle class="cls-2" cx="102.9" cy="25.84" r="2.94"/><circle class="cls-2" cx="126.21" cy="25.84" r="2.94"/><path class="cls-2" d="M121.17,37.09c-1.85,0-3.18-.4-3.72-1.12a2.53,2.53,0,0,1-.41-1.56l1.59-1.6a2.14,2.14,0,0,0-1.52-3.66h-5.32a2.14,2.14,0,0,0-1.52,3.66l1.79,1.8a2.4,2.4,0,0,1-.4,1.35c-.54.73-1.87,1.14-3.73,1.14a2.48,2.48,0,1,0,0,5,10,10,0,0,0,6.62-2,10,10,0,0,0,6.62,2,2.48,2.48,0,1,0,0-5Z"/><path class="cls-2" d="M161.54,40.93,156,39.8c0-.57,0-1.14,0-1.71a45.53,45.53,0,0,0-.61-7.14l6.11-1.25a2.48,2.48,0,1,0-1-4.86l-6.11,1.24a102.66,102.66,0,0,0-8.77-22.39,6.89,6.89,0,0,0-9.82-2.61l-7.56,4.86c-14.4-3.49-23.57-1.37-26.92-.26L96.17,2A6.9,6.9,0,0,0,85.7,5.26c-.5,1.36-1,2.9-1.5,4.53a64.1,64.1,0,0,1-3.81,10.1C75.18,14,64.34,3.9,45.5,3.9c-18.68,0-28.11,14.44-29.87,22.32C5.66,26.83,0,31.76,0,39.95c0,16.27,9.13,17.9,18.8,19.62,1.29.23,2.62.47,4,.75a.54.54,0,0,1,.41.31,31.08,31.08,0,0,1,1.33,6.9c.51,4.43,1,9,4.95,13.49,1.52,1.74,3.19,3.5,4.95,5.23a2.48,2.48,0,0,0,3.47-3.55c-1.67-1.63-3.24-3.29-4.68-4.94C30.31,74.45,29.91,71,29.45,67a35.38,35.38,0,0,0-1.57-8,5.51,5.51,0,0,0-4.1-3.53c-1.41-.29-2.78-.53-4.11-.77C10.18,53,5,52.06,5,39.95a9.11,9.11,0,0,1,.54-3.2c4.57,2.33,17.75,2.83,15.1-8.29l-.3,0c.17-4.76,8.09-19.64,25.2-19.64a39.85,39.85,0,0,1,19.91,5.08V44.61s0,13.27,16,13.08a10.78,10.78,0,0,0,9.78-6.37c3.13-6.71.09-17.77-7.39-27.38,2.27-3.52,3.79-8.33,5.15-12.64.5-1.58,1-3.07,1.43-4.33A1.94,1.94,0,0,1,93.3,6l6.28,4.45a2.51,2.51,0,0,0,2.47.23c.09,0,9.22-4,26.07.29a2.48,2.48,0,0,0,2-.32c1.93-1.25,5.59-3.61,8.44-5.43a1.93,1.93,0,0,1,2.75.74,98,98,0,0,1,8.31,21.08l-6.67,1.36a2.48,2.48,0,1,0,1,4.86l6.66-1.36a40.62,40.62,0,0,1,.51,6.15c0,.23,0,.47,0,.7l-7.14-1.45a2.48,2.48,0,1,0-1,4.86l7.65,1.56c-2.14,12.3-11.15,25.34-26.9,38.84a2.48,2.48,0,1,0,3.23,3.77C143.47,72.15,153,58.18,155.43,44.75l5.12,1a2.48,2.48,0,1,0,1-4.86Z"/><path class="cls-3" d="M47.23,90.11C50.6,98.5,68.84,111.46,81,111.46c6,0,14.54-3.47,22.28-9.06,5.75-4.15,10-8.76,11.49-12.29Z"/><path class="cls-2" d="M117.86,85.15h-2.49c0-.15,0-.3,0-.45a9.58,9.58,0,0,0-10.22-9.57,12.53,12.53,0,0,0-13.64-3.54,14.8,14.8,0,0,0-20.46,0,12.53,12.53,0,0,0-13.64,3.54A9.58,9.58,0,0,0,47.23,84.7c0,.15,0,.3,0,.45h-3a2.48,2.48,0,0,0-2.48,2.48c0,11.3,23.88,28.79,39.31,28.79s39.31-17.49,39.31-28.79A2.48,2.48,0,0,0,117.86,85.15Zm-3.07,5c-1.49,3.53-5.74,8.14-11.49,12.29C95.57,108,87,111.46,81,111.46c-12.19,0-30.44-13-33.8-21.35ZM52.19,84.7a4.6,4.6,0,0,1,5.73-4.49,2.48,2.48,0,0,0,2.65-1,7.56,7.56,0,0,1,6.29-3.36,7.48,7.48,0,0,1,3.64.93,2.48,2.48,0,0,0,3.13-.62,9.84,9.84,0,0,1,15.36,0,2.48,2.48,0,0,0,3.13.62,7.48,7.48,0,0,1,3.64-.93A7.56,7.56,0,0,1,102,79.19a2.48,2.48,0,0,0,2.65,1,4.6,4.6,0,0,1,5.73,4.49,4.52,4.52,0,0,1,0,.45H52.23A4.52,4.52,0,0,1,52.19,84.7Z"/><path class="cls-2" d="M17.6,161.74a3.71,3.71,0,0,1-4.63,0,2.49,2.49,0,0,1-1-2V137.88a2.87,2.87,0,0,1,1.1-2.26,4,4,0,0,1,2.66-.94h7q12.84,0,12.84,8.75a8,8,0,0,1-1.73,5.18,9.75,9.75,0,0,1-4.52,3.09,19.8,19.8,0,0,1-6.42,1H19c-.29,0-.43.12-.43.37v6.73A2.49,2.49,0,0,1,17.6,161.74Zm1-13.86c0,.25.14.37.43.37h3.5q6.66,0,6.66-4.81a3.57,3.57,0,0,0-1.69-3.34,10.53,10.53,0,0,0-5.19-1H19c-.29,0-.43.12-.43.37Z"/><path class="cls-2" d="M44.19,162.55a4,4,0,0,1-2.66-.94,2.87,2.87,0,0,1-1.1-2.26V137.88a2.87,2.87,0,0,1,1.1-2.26,4,4,0,0,1,2.66-.94H57.81a2.87,2.87,0,0,1,1.92.68,2.07,2.07,0,0,1,0,3.27,2.87,2.87,0,0,1-1.92.68H47.43q-.43,0-.43.37v5.7q0,.37.43.37h8.3a2.93,2.93,0,0,1,2,.68,2.11,2.11,0,0,1,0,3.31,2.93,2.93,0,0,1-2,.68h-8.3q-.43,0-.43.37v6.73c0,.25.14.37.43.37H58.29a2.87,2.87,0,0,1,1.92.68,2.11,2.11,0,0,1,0,3.31,2.87,2.87,0,0,1-1.92.68Z"/><path class="cls-2" d="M71.84,161.78a3.54,3.54,0,0,1-4.41,0,2.38,2.38,0,0,1-.91-1.87V137.55a2.6,2.6,0,0,1,1-2,3.47,3.47,0,0,1,2.36-.84,6.31,6.31,0,0,1,2.9.68,5.22,5.22,0,0,1,2.08,1.82l7.91,12.35L86,155.45a.15.15,0,0,0,.15.11.1.1,0,0,0,.11-.11,87.26,87.26,0,0,1-.87-9.67v-8.45a2.38,2.38,0,0,1,.91-1.87,3.54,3.54,0,0,1,4.41,0,2.38,2.38,0,0,1,.91,1.88v22.38a2.54,2.54,0,0,1-1,2,3.52,3.52,0,0,1-2.36.83,6.37,6.37,0,0,1-2.85-.66,4.69,4.69,0,0,1-2-1.84l-7.91-12.42-3.29-5.88a.16.16,0,0,0-.15-.07q-.11,0-.11.07.09.55.26,2.24t.26,2.59q.09.9.2,2.3t.11,2.5v8.53A2.38,2.38,0,0,1,71.84,161.78Z"/><path class="cls-2" d="M110.65,161.74a3.71,3.71,0,0,1-4.63,0,2.51,2.51,0,0,1-1-2V139.69q0-.37-.43-.37H98.58a2.87,2.87,0,0,1-1.92-.68,2.07,2.07,0,0,1,0-3.27,2.87,2.87,0,0,1,1.92-.68h19.59a2.87,2.87,0,0,1,1.92.68,2.07,2.07,0,0,1,0,3.27,2.87,2.87,0,0,1-1.92.68H112q-.43,0-.43.37v20.07A2.51,2.51,0,0,1,110.65,161.74Z"/><path class="cls-2" d="M147.49,159.13a16.3,16.3,0,0,1-21.23,0q-4-3.93-4-10.62t4-10.51q4-3.82,10.64-3.82T147.51,138q4,3.82,4,10.51T147.49,159.13Zm-16.41-3.53a7.71,7.71,0,0,0,11.63,0,10.88,10.88,0,0,0,2.16-7.09,10.5,10.5,0,0,0-2.16-7,7.92,7.92,0,0,0-11.65,0,10.57,10.57,0,0,0-2.14,7A10.87,10.87,0,0,0,131.08,155.6Z"/></svg>